<?xml version="1.0" encoding="utf-8"?>
<!-- Generator: Adobe Illustrator 18.0.0, SVG Export Plug-In . SVG Version: 6.00 Build 0)  -->
<!DOCTYPE svg PUBLIC "-//W3C//DTD SVG 1.1//EN" "http://www.w3.org/Graphics/SVG/1.1/DTD/svg11.dtd">
<svg version="1.1" id="Layer_1" xmlns="http://www.w3.org/2000/svg" xmlns:xlink="http://www.w3.org/1999/xlink" x="0px" y="0px"
	 width="239.3px" height="238.3px" viewBox="0 0 239.3 238.3" enable-background="new 0 0 239.3 238.3" xml:space="preserve">
<g>
	<linearGradient id="SVGID_1_" gradientUnits="userSpaceOnUse" x1="73.3001" y1="38.961" x2="161.5672" y2="190.3465">
		<stop  offset="0" style="stop-color:#C6CDD6"/>
		<stop  offset="1" style="stop-color:#BCC4CC"/>
	</linearGradient>
	<path fill="url(#SVGID_1_)" d="M120.4,234.7c-63.4,0-115-51.6-115-115s51.6-115,115-115c63.4,0,115,51.6,115,115
		S183.8,234.7,120.4,234.7z"/>
	<g>
		<path fill="#C6CDD6" d="M120.4,6.7c62.4,0,113,50.6,113,113v0c0,62.4-50.6,113-113,113h0c-62.4,0-113-50.6-113-113v0
			C7.4,57.3,57.9,6.7,120.4,6.7L120.4,6.7 M120.4,2.7c-31.3,0-60.6,12.2-82.7,34.3C15.5,59,3.4,88.4,3.4,119.7
			c0,31.3,12.2,60.6,34.3,82.7c22.1,22.1,51.5,34.3,82.7,34.3c31.3,0,60.6-12.2,82.7-34.3c22.1-22.1,34.3-51.5,34.3-82.7
			c0-31.3-12.2-60.6-34.3-82.7C181,14.8,151.6,2.7,120.4,2.7L120.4,2.7z"/>
	</g>
</g>
<g>
	<defs>
		<path id="SVGID_2_" d="M120.4,232.7L120.4,232.7c-62.4,0-113-50.6-113-113v0c0-62.4,50.6-113,113-113h0c62.4,0,113,50.6,113,113v0
			C233.4,182.1,182.8,232.7,120.4,232.7z"/>
	</defs>
	<clipPath id="SVGID_3_">
		<use xlink:href="#SVGID_2_"  overflow="visible"/>
	</clipPath>
	<g clip-path="url(#SVGID_3_)">
		<image overflow="visible" opacity="0.25" width="311" height="294" xlink:href="71C249C2.png"  transform="matrix(1 0 0 1 -29.6667 -4.3333)"></image>
		<g>
			
				<linearGradient id="SVGID_4_" gradientUnits="userSpaceOnUse" x1="64.8795" y1="67.2258" x2="130.996" y2="247.2878" gradientTransform="matrix(-1 0 0 1 240.7128 0)">
				<stop  offset="0" style="stop-color:#F2F2F2"/>
				<stop  offset="1" style="stop-color:#DFE4EB"/>
			</linearGradient>
			<path fill="url(#SVGID_4_)" d="M222.7,198.7c-0.8-1.3-6-6.1-8.4-7.4c-4.7-2.4-10.3-4.9-15.1-6.9c-5-2.1-10.1-4.3-15.1-6.4
				c-5.8-2.5-11.5-5-17.4-7.3c-2.1-0.8-4.3-1.4-6.5-1.8c-2.5-0.4-4.2-1.9-5.5-3.9c-2.2-3.2-3.8-6.7-5.4-10.3
				c-0.4-0.8-0.8-1.2-1.7-1.4c-0.7-0.1-1.4-0.4-2.2-0.5c-0.8-0.1-0.8-0.5-0.6-1.1c0.5-2,1.5-3.6,3-4.9c2-1.8,2.6-4,2.8-6.5
				c0.2-3.1,0.6-6.2,0.9-9.3c0.1-1,0.3-2.8,0.3-3.8c0-0.5,0.2-0.7,0.7-0.8c3.4-0.3,5.8-2.1,6.9-5.3c0.4-1.2,0.8-2.4,1.1-3.6
				c0.7-2.8,1-5.7,1.3-8.6c0.2-2,0.3-4.1,0.4-6.1c0.1-1.3-0.2-2.5-0.9-3.6c-1.7-2.6-1.8-5.3-1.1-8.3c1.3-6,1.9-12.1,1.6-18.2
				c-0.3-5.6-1.5-11.1-4.6-16c-2.1-3.4-4.9-6.3-8.5-8c-6.5-3.2-13.4-5.7-20.5-7.2c-3.9-0.9-7.9-1.1-12-0.8c-5.7,0.4-11.2,2-16,5.2
				c-1.3,0.9-2.4,2.1-3.6,3.2c-0.3,0.3-0.7,0.5-1.2,0.5c-1.7,0.2-3.4,0.5-5.1,0.9c-2,0.4-2.8,2-3.8,3.4c-2.2,3.3-2.9,7-3.7,10.8
				c-0.6,3.1-1.2,6.2-1,9.4c0.2,3.4,0.7,6.8,0.9,10.2c0.2,3.5,1.2,5.7,0.8,9.5c-0.1,2.4-1.1,4.2-1.7,4.7c-2.1,1.6-1.6,4-1.6,7
				c0.4,5.7,1.5,11.8,3.3,16.7c0.9,2.3,2.6,3.2,4.7,4.1c2.6,1.1,1.9-0.1,2.3,2.5c0.4,2.4,1,8.5,1.2,11c0.2,2.9,1.3,4.2,3.2,6.4
				c1.4,1.5,2.4,3.2,2.7,5.3c0.1,0.8,0.3,1.5-1,1.6c-1.2,0-2.4,0.4-3.6,0.5c-0.7,0.1-1,0.3-1.3,0.9c-1.5,3.4-3.1,6.8-5.1,9.9
				c-1.5,2.4-3.4,4.1-6.4,4.7c-6.2,1.1-11.8,4.1-17.5,6.4c-5.6,2.3-11.2,4.6-16.7,7.2c-5.5,2.5-11.3,4.1-16.8,6.4
				c-3.8,1.6-7.2,3.7-9.5,7.2c-0.5,0.8-1,1.7-1.4,2.6c-4.4,7.7-4.8,17.6-4.9,25.9c0,1.7,1.2,3.1,2.9,3.4
				c66.4,11.3,141.5,11.3,207.9,0c1.7-0.3,2.9-1.7,2.9-3.4C227.1,216.5,226.8,206.6,222.7,198.7z"/>
			<linearGradient id="SVGID_5_" gradientUnits="userSpaceOnUse" x1="228.1931" y1="138.4469" x2="12.5197" y2="138.4469">
				<stop  offset="0" style="stop-color:#FFFFFF"/>
				<stop  offset="1" style="stop-color:#E9EBEF"/>
			</linearGradient>
			<path fill="url(#SVGID_5_)" d="M222.7,198.7c-1.1-1.4-2.3-2.5-3.6-3.7c-1.3-1.1-2.6-2.3-4-3.2c-3-1.7-6.2-3.1-9.3-4.5
				c-6.3-2.8-12.6-5.4-19-8.1l-19-8c-1.6-0.7-3.2-1.2-4.9-1.7c-0.8-0.2-1.7-0.4-2.5-0.5c-0.8-0.1-1.7-0.4-2.5-0.8
				c-1.6-0.8-2.7-2.2-3.6-3.7c-0.9-1.4-1.8-3-2.6-4.5c-0.8-1.5-1.5-3.1-2.2-4.6c-0.2-0.4-0.3-0.8-0.6-1.1c-0.2-0.3-0.6-0.6-0.9-0.7
				c-0.8-0.1-1.7-0.4-2.5-0.6c-0.2,0-0.5-0.1-0.7-0.3c-0.2-0.2-0.2-0.5-0.2-0.7c0.1-0.5,0.2-0.8,0.3-1.3c0.3-0.8,0.7-1.6,1.2-2.3
				c0.5-0.7,1.1-1.4,1.7-1.9c0.6-0.6,1.1-1.3,1.5-2c0.8-1.5,0.9-3.2,1.1-4.9l0.5-5.1c0.2-1.7,0.3-3.4,0.4-5.1l0.1-1.3l0-0.6
				c0-0.2,0-0.4,0.1-0.7c0.1-0.3,0.5-0.5,0.7-0.5l0.7-0.1c0.4-0.1,0.8-0.1,1.2-0.3c1.6-0.4,3.1-1.4,4-2.8c0.5-0.7,0.8-1.5,1.1-2.2
				l0.8-2.5c1-3.3,1.3-6.7,1.5-10.1l0.3-5.1c0.1-0.8,0-1.7-0.2-2.4c-0.1-0.4-0.3-0.7-0.5-1.1c-0.2-0.4-0.5-0.7-0.7-1.1
				c-0.8-1.6-1.1-3.4-1-5.2c0.1-1.8,0.6-3.4,0.9-5.1c0.6-3.4,0.9-6.8,1-10.2c0.1-3.4-0.1-6.8-0.7-10.2c-0.6-3.3-1.6-6.6-3.3-9.5
				c-1.7-2.9-3.8-5.6-6.6-7.5c-1.3-1-2.9-1.7-4.4-2.4c-1.6-0.7-3.1-1.4-4.7-2c-3.2-1.3-6.4-2.3-9.7-3.2c-1.6-0.4-3.3-0.8-5-1.2
				c-1.7-0.3-3.3-0.5-5-0.6c-3.4-0.2-6.8,0-10.1,0.6c-3.3,0.6-6.5,1.8-9.4,3.5c-0.7,0.4-1.5,0.9-2.1,1.3c-0.6,0.5-1.2,1-1.8,1.6
				l-0.9,0.9l-0.5,0.5c-0.2,0.2-0.5,0.4-0.8,0.5c-0.3,0.1-0.6,0.2-0.8,0.2L95,50.5l-1.3,0.2l-2.5,0.4c-0.8,0.1-1.4,0.3-2,0.8
				c-0.5,0.5-1,1.1-1.5,1.8c-0.5,0.7-0.9,1.4-1.3,2.1c-1.5,2.9-2.1,6.3-2.8,9.6c-0.7,3.4-1.1,6.7-0.8,10c0.1,1.7,0.3,3.4,0.5,5.1
				c0.1,0.9,0.2,1.7,0.2,2.6c0.1,0.9,0.1,1.7,0.2,2.5c0.2,1.6,0.6,3.3,0.7,5.2c0.1,0.9,0.1,1.8,0,2.7c0,0.4-0.1,0.9-0.1,1.3
				c-0.1,0.5-0.2,0.9-0.3,1.4c-0.3,0.9-0.6,1.8-1.4,2.7c0,0.1-0.1,0.1-0.2,0.2l-0.1,0.1l-0.2,0.2c-0.1,0.1-0.2,0.2-0.3,0.3
				c-0.2,0.3-0.3,0.5-0.4,0.9c-0.4,1.3-0.2,3.1-0.2,4.9l0-0.1c0.4,4.3,1,8.6,2.1,12.8c0.3,1,0.6,2.1,1,3.1c0.3,1,0.7,1.8,1.4,2.4
				c0.7,0.6,1.5,1.1,2.5,1.5c0.5,0.2,1,0.4,1.4,0.6l0.8,0.2c0.1,0,0.1,0,0.2,0.1c0.1,0.1,0.2,0.1,0.3,0.2c0.2,0.2,0.3,0.4,0.4,0.6
				c0.1,0.3,0.1,0.4,0.1,0.6c0.5,4.3,0.9,8.7,1.4,13c0.2,1,0.5,1.9,1,2.7c0.5,0.8,1.2,1.6,2,2.4c1.6,1.7,2.8,3.9,2.9,6.6
				c0,0.2,0,0.5-0.2,0.8c-0.2,0.3-0.5,0.6-0.7,0.7c-0.5,0.2-0.9,0.2-1.2,0.3c-0.5,0-1,0.1-1.5,0.2c-0.5,0.1-1.1,0.2-1.7,0.3l-0.4,0
				c0,0-0.1,0-0.1,0c0,0,0,0-0.1,0.1l-1.3,2.9c-0.5,1-1,2-1.5,3c-0.5,1-1.1,2-1.6,2.9c-0.6,1-1.1,1.9-1.9,2.9
				c-0.7,0.9-1.6,1.8-2.7,2.4c-1,0.6-2.2,1.1-3.4,1.3c-4.2,0.8-8.2,2.4-12.2,4.2c-4,1.8-8.1,3.4-12.1,5.2l-12.1,5.2
				c-4.1,1.7-8.3,3-12.4,4.6c-2,0.8-4,1.6-5.8,2.7c-1.8,1.1-3.4,2.4-4.7,4.1c-0.2,0.2-0.3,0.4-0.5,0.6l-0.2,0.3l-0.2,0.4l-0.8,1.4
				l-0.4,0.7l-0.4,0.7c-0.3,0.5-0.5,1-0.7,1.4c-0.9,1.9-1.6,4-2.1,6c-1,4.2-1.4,8.5-1.6,12.9c0,1.1-0.1,2.2-0.1,3.3l0,0.8l0,0.4
				c0,0.1,0,0.3,0,0.3c0,0.4,0.2,0.8,0.4,1.2c0.2,0.4,0.6,0.7,0.9,0.9c0.2,0.1,0.4,0.2,0.6,0.3c0.1,0,0.2,0.1,0.3,0.1l0.4,0.1
				l3.2,0.5c4.3,0.7,8.6,1.5,13,2c4.3,0.6,8.7,1.2,13,1.7c4.3,0.5,8.7,1.1,13.1,1.4c4.4,0.4,8.7,0.9,13.1,1.2
				c4.4,0.3,8.7,0.7,13.1,0.9c4.4,0.2,8.7,0.5,13.1,0.6c4.4,0.1,8.8,0.3,13.1,0.4c4.4,0.1,8.8,0.2,13.1,0.1c4.4,0,8.8,0,13.1-0.2
				c4.4-0.1,8.8-0.2,13.1-0.4c4.4-0.2,8.8-0.4,13.1-0.7c4.4-0.3,8.7-0.6,13.1-1c4.4-0.4,8.7-0.7,13.1-1.3c4.4-0.5,8.7-0.9,13.1-1.6
				c4.3-0.6,8.7-1.1,13-1.9l6.5-1c0.5-0.1,1.1-0.1,1.6-0.3c0.5-0.1,1-0.4,1.4-0.8c0.8-0.7,1.2-1.9,1.1-2.9c0-4.4-0.2-8.8-0.8-13.1
				C225.8,207,224.7,202.7,222.7,198.7z M222.7,198.7c2,3.9,3.1,8.2,3.7,12.6c0.6,4.3,0.8,8.7,0.8,13.1c0.1,1.1-0.3,2.3-1.1,3
				c-0.4,0.4-0.9,0.7-1.4,0.8c-0.5,0.1-1.1,0.2-1.6,0.3l-6.5,1c-4.3,0.7-8.7,1.3-13,1.9c-4.3,0.6-8.7,1.1-13.1,1.6
				c-4.4,0.5-8.7,0.9-13.1,1.3c-4.4,0.4-8.7,0.7-13.1,1c-4.4,0.4-8.8,0.5-13.1,0.8c-4.4,0.3-8.8,0.4-13.1,0.5
				c-4.4,0.2-8.8,0.2-13.2,0.3c-4.4,0.1-8.8,0-13.2,0c-4.4,0-8.8-0.1-13.2-0.3c-4.4-0.1-8.8-0.3-13.1-0.5c-4.4-0.2-8.8-0.5-13.1-0.8
				c-4.4-0.3-8.7-0.7-13.1-1.1c-4.4-0.3-8.7-0.9-13.1-1.3c-4.4-0.4-8.7-1.1-13.1-1.6c-4.4-0.5-8.7-1.3-13-1.9l-3.2-0.5l-0.4-0.1
				c-0.2,0-0.3-0.1-0.5-0.1c-0.3-0.1-0.6-0.2-0.9-0.4c-0.6-0.3-1.1-0.8-1.4-1.3c-0.4-0.6-0.6-1.2-0.7-1.9c0-0.2,0-0.3,0-0.5l0-0.4
				l0-0.8c0-1.1,0-2.2,0.1-3.3c0.1-4.4,0.5-8.8,1.6-13.2c0.5-2.2,1.2-4.3,2.2-6.4c0.2-0.5,0.5-1,0.7-1.5l0.4-0.8l0.4-0.7l0.8-1.4
				l0.2-0.4l0.3-0.4c0.2-0.2,0.3-0.5,0.5-0.7c1.4-1.8,3.2-3.3,5.1-4.5c1.9-1.2,4-2.1,6.1-2.9c4.1-1.6,8.3-2.9,12.3-4.6l12.1-5.2
				c4-1.8,8.1-3.4,12.1-5.2c4-1.8,8.2-3.5,12.6-4.3c2-0.3,3.7-1.4,4.9-3c1.2-1.6,2.3-3.6,3.3-5.5c0.5-1,1-1.9,1.4-2.9l0.7-1.5
				l0.3-0.7c0.1-0.3,0.2-0.5,0.4-0.8c0.2-0.3,0.6-0.8,1.1-1c0.2-0.1,0.4-0.1,0.6-0.2l0.4,0c0.5-0.1,1-0.2,1.6-0.3
				c0.5-0.1,1.1-0.2,1.8-0.2c0.3,0,0.4,0,0.4,0c0,0-0.1,0.1-0.1,0.2c0,0.1,0,0.1,0,0c0-0.1,0-0.4-0.1-0.6c0-0.2-0.1-0.5-0.2-0.7
				c-0.1-0.5-0.3-0.9-0.5-1.4c-0.4-0.9-1-1.7-1.7-2.5c-0.7-0.8-1.5-1.6-2.2-2.7c-0.7-1-1.1-2.2-1.3-3.4c-0.5-4.4-0.9-8.7-1.4-13.1
				c0-0.1,0-0.3,0-0.2c0,0,0.1,0.2,0.2,0.3c0,0,0.1,0.1,0.1,0.1c0,0,0,0,0,0l-0.7-0.2c-0.6-0.2-1.1-0.4-1.6-0.6
				c-1-0.5-2.1-1-3.1-1.9c-0.9-0.9-1.5-2.1-1.9-3.2c-0.4-1.1-0.7-2.1-1-3.2c-1.2-4.3-1.8-8.7-2.1-13.1l0,0l0-0.1l0-2.6
				c0-0.9,0-1.8,0.3-2.8c0.2-0.5,0.4-1,0.7-1.4c0.1-0.2,0.4-0.4,0.6-0.6l0.4-0.4c0.4-0.4,0.7-1.2,0.9-1.9c0.1-0.4,0.2-0.7,0.3-1.1
				c0.1-0.4,0.1-0.7,0.1-1.2c0.1-0.8,0.1-1.6,0-2.4c-0.1-1.6-0.5-3.3-0.7-5c-0.1-0.9-0.2-1.8-0.2-2.6c-0.1-0.8-0.1-1.7-0.2-2.5
				c-0.2-1.7-0.4-3.4-0.5-5.2c-0.1-1.7-0.2-3.6,0-5.3c0.2-1.8,0.5-3.5,0.8-5.2c0.7-3.4,1.3-6.9,3-10.1c0.4-0.8,0.9-1.6,1.4-2.3
				c0.5-0.7,1-1.5,1.8-2.2c0.4-0.3,0.8-0.6,1.3-0.8l0.4-0.1l0.3-0.1c0.3-0.1,0.5-0.1,0.7-0.1l2.5-0.4l1.3-0.2
				c0.4-0.1,0.9-0.1,1.1-0.2c0.1,0,0.2-0.1,0.3-0.2l0.5-0.4l0.9-0.9c0.6-0.6,1.3-1.2,2-1.8c0.7-0.5,1.5-1,2.3-1.4
				c3.1-1.7,6.4-2.9,9.9-3.6c3.5-0.6,7-0.8,10.4-0.6c1.7,0.1,3.5,0.3,5.2,0.7c1.7,0.3,3.4,0.8,5.1,1.2c3.3,0.9,6.6,2,9.8,3.3
				c1.6,0.6,3.2,1.3,4.8,2.1c1.5,0.7,3.2,1.5,4.6,2.5c2.9,2.1,5.1,4.9,6.8,7.9c1.7,3.1,2.8,6.5,3.3,9.9c0.6,3.4,0.7,6.9,0.6,10.4
				c-0.1,3.5-0.5,6.9-1.1,10.3c-0.3,1.7-0.8,3.4-0.9,5c-0.1,1.7,0.1,3.3,0.9,4.8c0.2,0.4,0.4,0.7,0.6,1.1c0.2,0.4,0.4,0.8,0.6,1.3
				c0.3,0.9,0.3,1.8,0.2,2.7l-0.4,5.1c-0.3,3.4-0.6,6.9-1.6,10.2l-0.8,2.5c-0.3,0.9-0.7,1.6-1.2,2.4c-1,1.5-2.6,2.5-4.3,3
				c-0.4,0.1-0.9,0.2-1.3,0.3c-0.4,0.1-0.9,0.1-1,0.3c-0.1,0.1-0.1,0.3-0.1,0.6L152,128l-0.1,1.3c-0.1,1.7-0.3,3.4-0.5,5.1l-0.5,5.1
				c-0.1,1.7-0.3,3.5-1.1,5.1c-0.4,0.8-0.9,1.5-1.6,2.1c-0.6,0.6-1.2,1.2-1.7,1.9c-0.5,0.7-0.9,1.4-1.2,2.2
				c-0.2,0.7-0.8,1.9,0.3,1.9c0.9,0.2,1.7,0.4,2.5,0.6c0.4,0.1,0.8,0.4,1.1,0.8c0.3,0.4,0.4,0.8,0.6,1.2c0.7,1.6,1.4,3.1,2.2,4.6
				c0.8,1.5,1.6,3,2.5,4.5c0.9,1.4,2,2.8,3.5,3.6c1.5,0.8,3.3,0.9,4.9,1.3c1.7,0.4,3.3,1,4.9,1.7l19,8c6.3,2.7,12.7,5.4,18.9,8.2
				c3.1,1.4,6.3,2.8,9.3,4.5c1.4,1,2.7,2.1,4,3.2C220.4,196.2,221.7,197.4,222.7,198.7z"/>
		</g>
	</g>
</g>
</svg>
